<svg width="1129" height="184" viewBox="0 0 1129 184" fill="none" xmlns="http://www.w3.org/2000/svg">
   <mask id="mask0_339_216" style="mask-type:luminance" maskUnits="userSpaceOnUse" x="0" y="1" width="863" height="181">
      <path d="M862.475 1.84863H0V181.993H862.475V1.84863Z" fill="white"/>
   </mask>
   <g mask="url(#mask0_339_216)">
      <path fill-rule="evenodd" clip-rule="evenodd" d="M123.758 1.84863V34.584H38.7556V75.4864H112.447V105.745H38.7556V178.847H0.0693359V1.91556H123.758V1.84863ZM166.594 1.84863V178.78H131.589V1.84863H166.594ZM242.494 155.685C232.655 155.685 225.092 153.141 219.804 147.986C214.517 142.899 211.639 134.598 211.17 123.217H303.067C303.736 113.31 302.933 103.804 300.59 94.6992C298.315 85.5949 294.566 77.4947 289.346 70.3987C284.192 63.3027 277.566 57.6125 269.534 53.3951C261.502 49.1777 252.065 47.1024 241.222 47.1024C230.379 47.1024 222.682 48.8429 214.718 52.324C206.753 55.8051 199.859 60.558 194.17 66.583C188.414 72.6079 183.996 79.7708 180.85 88.0049C177.705 96.2389 176.165 105.209 176.165 114.782C176.165 124.355 177.705 133.794 180.717 142.028C183.728 150.262 188.079 157.358 193.634 163.316C199.19 169.274 206.017 173.826 214.115 177.04C222.147 180.253 231.183 181.86 241.222 181.86C255.679 181.86 267.995 178.579 278.168 171.952C288.342 165.325 295.905 154.346 300.858 139.016H270.07C268.932 142.965 265.786 146.714 260.699 150.262C255.613 153.81 249.522 155.618 242.494 155.618V155.685ZM240.285 73.6789C248.852 73.6789 255.211 76.022 259.361 80.6411C263.577 85.2602 266.455 92.0214 268.129 100.992H211.17C211.304 98.515 211.84 95.7033 212.777 92.557C213.647 89.4107 215.253 86.4652 217.462 83.6535C219.671 80.8419 222.615 78.4989 226.364 76.6245C230.045 74.7501 234.73 73.7459 240.285 73.7459V73.6789ZM302.665 50.6504H342.556L364.978 84.1221L387.132 50.6504H425.818L383.92 110.632L430.972 178.78H391.081L364.443 138.413L337.804 178.78H298.649L344.497 111.368L302.598 50.6504H302.665ZM433.516 1.84863V30.8351H468.521V1.84863H433.516ZM468.454 178.713V50.5835H433.449V178.713H468.454ZM491.411 172.755C492.549 173.693 493.754 174.496 495.025 175.299L560.149 170.814C561.89 169.475 563.496 168.002 565.102 166.329C565.236 167.734 565.37 169.073 565.571 170.412L599.773 168.069V167.935C599.706 167.601 599.639 167.199 599.572 166.797C598.903 161.509 598.568 155.952 598.568 150.195V83.5196C598.568 75.7542 596.828 69.5284 593.414 64.8424C589.934 60.1564 585.516 56.4745 580.095 53.7967C574.673 51.1859 568.65 49.3785 562.09 48.4413C555.531 47.504 549.039 47.1024 542.613 47.1024C536.188 47.1024 528.558 47.7718 521.53 49.1777C514.569 50.5835 508.278 52.9265 502.655 56.2067C497.1 59.4869 492.482 63.9052 488.868 69.3276C485.253 74.75 483.178 81.6452 482.71 89.8793H517.715C518.384 82.9172 520.66 77.9633 524.609 75.0178C528.558 72.0723 533.979 70.5326 540.873 70.5326C547.767 70.5326 546.897 70.7334 549.641 71.1351C552.318 71.5368 554.728 72.407 556.803 73.612C558.878 74.8839 560.484 76.5575 561.756 78.8336C562.961 81.0427 563.63 84.0552 563.63 87.871C563.764 91.4859 562.76 94.2976 560.417 96.172C558.141 98.0464 554.996 99.5191 551.047 100.523C547.098 101.527 542.613 102.264 537.46 102.732C532.373 103.201 527.219 103.87 521.932 104.741C516.644 105.544 511.49 106.682 506.27 108.088C501.116 109.494 496.498 111.569 492.482 114.381C488.466 117.192 485.186 120.941 482.643 125.627C480.1 130.313 478.828 136.338 478.828 143.568C478.828 150.798 479.966 155.885 482.175 160.638C484.383 165.458 487.462 169.408 491.411 172.554V172.755ZM515.573 134.129C516.711 131.987 518.25 130.179 520.125 128.773C521.999 127.368 524.207 126.23 526.751 125.426C529.294 124.623 531.904 123.953 534.515 123.418C537.326 122.949 540.07 122.481 542.881 122.146C545.692 121.811 548.37 121.41 550.913 120.874C553.456 120.406 555.866 119.736 558.075 119C560.283 118.263 562.157 117.192 563.63 115.92V129.041C563.63 131.049 563.429 133.66 563.027 136.941C562.626 140.221 561.488 143.501 559.681 146.714C557.874 149.928 555.063 152.672 551.314 155.015C547.566 157.358 542.212 158.496 535.318 158.496C528.424 158.496 529.83 158.229 527.152 157.76C524.542 157.291 522.199 156.421 520.258 155.149C518.317 153.877 516.711 152.204 515.573 150.061C514.435 147.919 513.833 145.241 513.833 142.162C513.833 139.083 514.435 136.137 515.573 133.995V134.129ZM648.9 164.655V111.569C648.9 98.515 651.042 89.1429 655.325 83.4527C659.609 77.7625 666.503 74.8839 676.007 74.8839C685.511 74.8839 690.197 77.4947 693.476 82.7163C696.756 87.9379 698.429 95.8372 698.429 106.347V161.174L733.434 158.764V99.9208C733.434 92.0215 732.765 84.7915 731.359 78.2311C729.954 71.7376 727.544 66.1813 724.064 61.6291C720.583 57.077 715.898 53.529 709.874 50.9851C703.851 48.4413 696.221 47.1694 686.85 47.1694C677.48 47.1694 672.259 48.8429 665.164 52.257C658.07 55.6712 652.38 61.0266 647.896 68.4574H647.16V50.6504H613.895V167.065L648.9 164.655ZM779.483 150.262C780.621 152.404 782.16 154.078 784.101 155.283L744.946 158.028C743.541 153.877 742.805 149.191 742.805 143.836C742.805 138.48 744.076 130.581 746.62 125.895C749.163 121.209 752.443 117.46 756.459 114.648C760.474 111.837 765.093 109.761 770.246 108.356C775.4 106.95 780.621 105.812 785.908 105.008C791.196 104.205 796.349 103.536 801.436 103C806.523 102.532 811.074 101.728 815.023 100.791C818.972 99.7869 822.118 98.3811 824.394 96.4397C826.669 94.5653 827.74 91.7537 827.606 88.1388C827.606 84.323 827.004 81.3105 825.732 79.1014C824.528 76.8923 822.854 75.1517 820.779 73.8798C818.705 72.6078 816.362 71.8046 813.618 71.4029C810.94 71.0012 807.995 70.8004 804.85 70.8004C797.956 70.8004 792.534 72.2731 788.586 75.2856C784.637 78.2311 782.361 83.1849 781.692 90.1471H746.687C747.155 81.913 749.23 75.0178 752.844 69.5954C756.459 64.173 761.077 59.7547 766.632 56.4745C772.187 53.1942 778.479 50.7843 785.507 49.4454C792.467 48.0396 799.495 47.3702 806.59 47.3702C813.685 47.3702 819.508 47.8388 826.067 48.709C832.626 49.6463 838.65 51.3868 844.071 54.0645C849.493 56.6753 853.91 60.3572 857.391 65.1102C860.871 69.7962 862.544 76.022 862.544 83.7874V150.061L818.437 153.141C820.646 151.333 822.319 149.392 823.59 147.116C825.398 143.903 826.535 140.622 826.937 137.342C827.339 134.062 827.539 131.384 827.539 129.443V116.322C826.067 117.661 824.193 118.665 821.984 119.401C819.775 120.138 817.366 120.74 814.823 121.276C812.279 121.744 809.602 122.213 806.791 122.548C803.98 122.882 801.235 123.284 798.424 123.82C795.814 124.288 793.204 124.958 790.66 125.828C788.117 126.631 785.908 127.769 784.034 129.175C782.16 130.581 780.621 132.321 779.483 134.531C778.345 136.673 777.743 139.417 777.743 142.698C777.743 145.978 778.345 148.455 779.483 150.597V150.262Z" fill="black"/>
   </g>
   <path d="M1066.75 161.54V162.075C1066.75 172.05 1058.65 180.083 1048.68 180.083H995.001C985.028 180.083 976.929 171.983 976.929 162.075V161.54C976.929 151.565 985.028 143.532 995.001 143.532H1017.02L990.048 80.94L952.901 167.163C948.417 177.539 936.369 182.359 925.928 177.874C915.487 173.389 910.667 161.339 915.152 150.963L969.701 24.4397C973.248 16.2056 981.548 11.5196 990.048 12.1221C998.548 11.5196 1006.85 16.2056 1010.39 24.4397L1064.94 150.963C1066.15 153.708 1066.68 156.586 1066.62 159.398C1066.68 160.067 1066.75 160.804 1066.75 161.54Z" fill="url(#paint0_linear_339_216)"/>
   <path d="M1066.75 161.54V162.075C1066.75 172.05 1058.65 180.083 1048.68 180.083H995.001C985.028 180.083 976.929 171.983 976.929 162.075V161.54C976.929 151.565 985.028 143.532 995.001 143.532H1017.02L990.048 80.94L952.901 167.163C948.417 177.539 936.369 182.359 925.928 177.874C915.487 173.389 910.667 161.339 915.152 150.963L969.701 24.4397C973.248 16.2056 981.548 11.5196 990.048 12.1221C998.548 11.5196 1006.85 16.2056 1010.39 24.4397L1064.94 150.963C1066.15 153.708 1066.68 156.586 1066.62 159.398C1066.68 160.067 1066.75 160.804 1066.75 161.54Z" fill="url(#paint1_linear_339_216)"/>
   <g style="mix-blend-mode:soft-light">
      <path style="mix-blend-mode:multiply" d="M1012.46 29.0588L1010.46 24.4397C1006.91 16.2056 998.61 11.5196 990.109 12.1221C981.609 11.5196 973.31 16.2056 969.762 24.4397L920.434 138.913C949.415 104.504 992.385 53.1585 1012.53 29.0588H1012.46Z" fill="url(#paint2_linear_339_216)"/>
      <path style="mix-blend-mode:multiply" d="M1064.94 150.962L1055.97 130.143L1017.49 180.082H1048.68C1058.65 180.082 1066.75 171.982 1066.75 162.075V161.539C1066.75 160.803 1066.75 160.133 1066.62 159.397C1066.62 156.585 1066.15 153.707 1064.94 150.962Z" fill="url(#paint3_linear_339_216)"/>
   </g>
   <path d="M1086.23 163.284C1086.49 174.932 1096.13 184.104 1107.78 183.836C1119.42 183.568 1128.66 173.861 1128.39 162.213L1125.31 20.6276C1125.05 8.97948 1115.41 -0.191744 1103.76 0.0760299C1092.12 0.343804 1082.88 10.0506 1083.15 21.6988L1086.23 163.284Z" fill="url(#paint4_linear_339_216)"/>
   <g style="mix-blend-mode:overlay">
      <path style="mix-blend-mode:multiply" d="M1083.48 35.6881L1124.85 16.7431C1122.84 6.96932 1114.07 -0.260573 1103.76 0.00720097C1092.12 0.274975 1082.88 9.98177 1083.15 21.6299L1083.48 35.6881Z" fill="url(#paint5_linear_339_216)"/>
      <path style="mix-blend-mode:multiply" opacity="0.5" d="M1084.55 85.6299L1086.23 163.284C1086.49 174.932 1096.13 184.104 1107.78 183.836C1114 183.702 1119.56 180.824 1123.31 176.405L1084.55 85.6968V85.6299Z" fill="url(#paint6_linear_339_216)"/>
   </g>
   <defs>
      <linearGradient id="paint0_linear_339_216" x1="913.479" y1="96.0692" x2="1066.75" y2="96.0692" gradientUnits="userSpaceOnUse">
         <stop stop-color="#EF5A8E"/>
         <stop offset="1" stop-color="#6952A1"/>
      </linearGradient>
      <linearGradient id="paint1_linear_339_216" x1="913.479" y1="96.0692" x2="1066.75" y2="96.0692" gradientUnits="userSpaceOnUse">
         <stop stop-color="#7AD0ED"/>
         <stop offset="1" stop-color="#8D6CAE"/>
      </linearGradient>
      <linearGradient id="paint2_linear_339_216" x1="920.367" y1="75.4506" x2="1012.46" y2="75.4506" gradientUnits="userSpaceOnUse">
         <stop stop-color="white"/>
         <stop offset="1"/>
      </linearGradient>
      <linearGradient id="paint3_linear_339_216" x1="1017.49" y1="155.113" x2="1066.75" y2="155.113" gradientUnits="userSpaceOnUse">
         <stop stop-color="white"/>
         <stop offset="1"/>
      </linearGradient>
      <linearGradient id="paint4_linear_339_216" x1="1073.9" y1="206.019" x2="1139.04" y2="43.6223" gradientUnits="userSpaceOnUse">
         <stop stop-color="#EF4F57"/>
         <stop offset="1" stop-color="#FDC158"/>
      </linearGradient>
      <linearGradient id="paint5_linear_339_216" x1="1104.62" y1="35.1127" x2="1103.89" y2="-0.0576036" gradientUnits="userSpaceOnUse">
         <stop stop-color="white"/>
         <stop offset="1"/>
      </linearGradient>
      <linearGradient id="paint6_linear_339_216" x1="1105.38" y1="183.719" x2="1103.21" y2="85.0831" gradientUnits="userSpaceOnUse">
         <stop stop-color="white"/>
         <stop offset="1"/>
      </linearGradient>
   </defs>
</svg>